<?xml version="1.0" encoding="UTF-8" standalone="no"?>
<!-- Created with Inkscape (http://www.inkscape.org/) -->

<svg
   xmlns:dc="http://purl.org/dc/elements/1.1/"
   xmlns:cc="http://creativecommons.org/ns#"
   xmlns:rdf="http://www.w3.org/1999/02/22-rdf-syntax-ns#"
   xmlns:svg="http://www.w3.org/2000/svg"
   xmlns="http://www.w3.org/2000/svg"
   xmlns:sodipodi="http://sodipodi.sourceforge.net/DTD/sodipodi-0.dtd"
   xmlns:inkscape="http://www.inkscape.org/namespaces/inkscape"
   width="210mm"
   height="297mm"
   id="svg3053"
   version="1.1"
   inkscape:version="0.48.2 r9819"
   sodipodi:docname="cover.svg"
   inkscape:export-filename="D:\Workspace\Makers\resources\cover.png"
   inkscape:export-xdpi="213.80472"
   inkscape:export-ydpi="213.80472">
  <defs
     id="defs3" />
  <sodipodi:namedview
     inkscape:document-units="mm"
     id="base"
     pagecolor="#ffffff"
     bordercolor="#666666"
     borderopacity="1.0"
     inkscape:pageopacity="0.0"
     inkscape:pageshadow="2"
     inkscape:zoom="0.49497475"
     inkscape:cx="279.07466"
     inkscape:cy="609.18394"
     inkscape:current-layer="layer1"
     showgrid="false"
     inkscape:snap-grids="true"
     inkscape:window-width="1280"
     inkscape:window-height="962"
     inkscape:window-x="-8"
     inkscape:window-y="-8"
     inkscape:window-maximized="1" />
  <metadata
     id="metadata4">
    <rdf:RDF>
      <cc:Work
         rdf:about="">
        <dc:format>image/svg+xml</dc:format>
        <dc:type
           rdf:resource="http://purl.org/dc/dcmitype/StillImage" />
        <dc:title></dc:title>
      </cc:Work>
    </rdf:RDF>
  </metadata>
  <g
     inkscape:label="Layer 1"
     inkscape:groupmode="layer"
     id="layer1">
    <flowRoot
       xml:space="preserve"
       id="TitleJp"
       style="font-size:100px;font-style:normal;font-variant:normal;font-weight:normal;font-stretch:normal;text-align:center;line-height:125%;letter-spacing:0px;word-spacing:0px;writing-mode:lr-tb;text-anchor:middle;fill:#000000;fill-opacity:1;stroke:none;font-family:MS Mincho;-inkscape-font-specification:MS Mincho"
       transform="translate(2.1019287,-19.999985)"><flowRegion
         id="flowRegion3061"><rect
           id="rect3063"
           width="587.90881"
           height="143.44167"
           x="70.710678"
           y="104.8391"
           style="font-size:100px;text-align:center;letter-spacing:0px;text-anchor:middle" /></flowRegion><flowPara
         id="flowPara3065">メイカーズ</flowPara></flowRoot>    <text
       xml:space="preserve"
       style="font-size:40px;font-style:normal;font-variant:normal;font-weight:normal;font-stretch:normal;text-align:start;line-height:125%;letter-spacing:0px;word-spacing:0px;writing-mode:lr-tb;text-anchor:start;fill:#000000;fill-opacity:1;stroke:none;font-family:MS Mincho;-inkscape-font-specification:MS Mincho"
       x="191.26599"
       y="254.66364"
       id="AuthorJp"
       sodipodi:linespacing="125%"><tspan
         sodipodi:role="line"
         id="tspan3069"
         x="191.26599"
         y="254.66364">コリイ・ドクトロウ</tspan></text>
    <text
       xml:space="preserve"
       style="font-size:72px;font-style:normal;font-variant:normal;font-weight:normal;font-stretch:normal;text-align:start;line-height:125%;letter-spacing:0px;word-spacing:0px;writing-mode:lr-tb;text-anchor:start;fill:#000000;fill-opacity:1;stroke:none;font-family:MS Mincho;-inkscape-font-specification:MS Mincho"
       x="262.85715"
       y="770.93359"
       id="text3073"
       sodipodi:linespacing="125%"><tspan
         sodipodi:role="line"
         id="tspan3075"
         x="262.85715"
         y="770.93359" /></text>
    <text
       xml:space="preserve"
       style="font-size:75px;font-style:normal;font-variant:normal;font-weight:normal;font-stretch:normal;text-align:start;line-height:125%;letter-spacing:0px;word-spacing:0px;writing-mode:lr-tb;text-anchor:start;fill:#000000;fill-opacity:1;stroke:none;font-family:Times New Roman;-inkscape-font-specification:'Times New Roman,'"
       x="260.29797"
       y="836.63922"
       id="TitleEng"
       sodipodi:linespacing="125%"><tspan
         sodipodi:role="line"
         id="tspan3079"
         x="260.29797"
         y="836.63922">Makers</tspan></text>
    <flowRoot
       xml:space="preserve"
       id="AuthorEng"
       style="font-size:48px;font-style:normal;font-variant:normal;font-weight:normal;font-stretch:normal;text-align:center;line-height:125%;letter-spacing:0px;word-spacing:0px;writing-mode:lr-tb;text-anchor:middle;fill:#000000;fill-opacity:1;stroke:none;font-family:Times New Roman;-inkscape-font-specification:'Times New Roman,'"
       transform="translate(-50.726196,177.84928)"><flowRegion
         id="flowRegion3083"><rect
           id="rect3085"
           width="398.57144"
           height="65.714294"
           x="222.85715"
           y="676.64789"
           style="font-size:48px;text-align:center;text-anchor:middle" /></flowRegion><flowPara
         id="flowPara3087">Cory Doctorow</flowPara></flowRoot>    <flowRoot
       xml:space="preserve"
       id="Translator"
       style="font-size:28px;font-style:normal;font-variant:normal;font-weight:normal;font-stretch:normal;text-align:center;line-height:125%;letter-spacing:0px;word-spacing:0px;writing-mode:lr-tb;text-anchor:middle;fill:#000000;fill-opacity:1;stroke:none;font-family:MS Mincho;-inkscape-font-specification:MS Mincho"
       transform="translate(29.086304,143.40105)"><flowRegion
         id="flowRegion3091"><rect
           id="rect3093"
           width="298.57144"
           height="49.999996"
           x="191.42857"
           y="772.36218"
           style="font-size:28px;font-style:normal;font-variant:normal;font-weight:normal;font-stretch:normal;text-align:center;line-height:125%;writing-mode:lr-tb;text-anchor:middle;font-family:MS Mincho;-inkscape-font-specification:MS Mincho" /></flowRegion><flowPara
         id="flowPara3095"><flowSpan
   style="font-family:Times New Roman;-inkscape-font-specification:Times New Roman"
   id="flowSpan3099">[</flowSpan>訳<flowSpan
   style="font-family:Times New Roman;-inkscape-font-specification:Times New Roman"
   id="flowSpan3101">] Haruka Tsubota</flowSpan></flowPara></flowRoot>    <flowRoot
       xml:space="preserve"
       id="flowRoot4233"
       style="fill:black;stroke:none;stroke-opacity:1;stroke-width:1px;stroke-linejoin:miter;stroke-linecap:butt;fill-opacity:1;font-family:MS Mincho;font-style:normal;font-weight:normal;font-size:28px;line-height:125%;letter-spacing:0px;word-spacing:0px;-inkscape-font-specification:MS Mincho;font-stretch:normal;font-variant:normal;text-anchor:start;text-align:start;writing-mode:lr"><flowRegion
         id="flowRegion4235"><rect
           id="rect4237"
           width="355.71429"
           height="115.71429"
           x="165.71428"
           y="358.07648" /></flowRegion><flowPara
         id="flowPara4239" /></flowRoot>    <text
       xml:space="preserve"
       style="font-size:56px;font-style:normal;font-variant:normal;font-weight:normal;font-stretch:normal;text-align:start;line-height:125%;letter-spacing:0px;word-spacing:0px;writing-mode:lr-tb;text-anchor:start;fill:#000000;fill-opacity:1;stroke:none;font-family:Times New Roman;-inkscape-font-specification:Times New Roman"
       x="322.14285"
       y="458.07648"
       id="text24414"
       sodipodi:linespacing="125%"><tspan
         sodipodi:role="line"
         id="tspan24416"
         x="322.14285"
         y="458.07648"
         style="font-size:56px;font-style:normal;font-variant:normal;font-weight:normal;font-stretch:normal;font-family:Times New Roman;-inkscape-font-specification:Times New Roman" /><tspan
         sodipodi:role="line"
         x="322.14285"
         y="528.07648"
         id="tspan24418" /></text>
    <g
       id="g25350">
      <g
         id="g11374"
         transform="matrix(2.5604367,0,0,-2.5604367,138.18224,969.62898)">
        <g
           id="g3821"
           transform="translate(146.0508,189.3691)">
          <path
             d="m 0,0 c -0.281,-0.675 -0.218,-1.226 0.178,-1.552 0.795,-0.653 2.918,-0.504 5.748,1.315 L 2.455,3.353 C 1.423,2.347 0.518,1.243 0,0"
             style="fill:#000000;fill-opacity:1;fill-rule:nonzero;stroke:none"
             id="path3823"
             inkscape:connector-curvature="0" />
        </g>
        <g
           id="g3825"
           transform="translate(155.917,216.0884)">
          <path
             d="m 0,0 c -0.133,-1.003 -0.723,-3.998 -1.305,-6.852 -0.017,-0.754 -0.034,-1.215 -0.035,-1.229 0.001,-0.032 0.05,-2.967 -0.055,-5.191 -0.004,-1.339 -0.024,-3.046 -0.09,-4.832 -0.07,-1.959 -0.277,-3.842 -0.501,-5.408 3.862,8.006 5.479,16.485 5.583,20.155 C 3.705,0.401 2.749,1.729 2.598,1.916 2.483,1.95 2.367,1.976 2.245,1.992 0.561,2.217 0.169,1.088 0.152,1.039 L 0.141,1.003 c 0,0 -0.006,-0.008 -0.014,-0.023 C 0.091,0.694 0.053,0.397 0.011,0.083 L 0,0 z"
             style="fill:#000000;fill-opacity:1;fill-rule:nonzero;stroke:none"
             id="path3827"
             inkscape:connector-curvature="0" />
        </g>
        <g
           id="g3829"
           transform="translate(159.4438,217.4404)">
          <path
             d="M 0,0 C 0.338,-0.844 0.691,-2.316 0.623,-4.724 0.51,-8.668 -1.323,-18.092 -5.761,-26.589 l -0.023,0.011 c -0.088,-0.508 -0.171,-0.949 -0.241,-1.311 0.462,0.55 1.097,1.417 1.935,2.786 2.188,3.579 4.903,11.4 5.453,17.34 0.075,0.807 0.112,1.564 0.112,2.27 C 1.475,-2.846 0.958,-0.939 0,0"
             style="fill:#000000;fill-opacity:1;fill-rule:nonzero;stroke:none"
             id="path3831"
             inkscape:connector-curvature="0" />
        </g>
        <g
           id="g3833"
           transform="translate(154.5044,219.6982)">
          <path
             d="m 0,0 c 0.16,-2.205 0.181,-5.06 0.161,-7.396 0.343,1.741 0.621,3.224 0.704,3.858 l 0.011,0.084 c 0.258,1.96 0.445,3.376 -0.213,4.1 C 0.408,0.926 0.127,1.131 -0.147,1.283 -0.082,0.891 -0.034,0.465 0,0"
             style="fill:#000000;fill-opacity:1;fill-rule:nonzero;stroke:none"
             id="path3835"
             inkscape:connector-curvature="0" />
        </g>
        <g
           id="g3837"
           transform="translate(153.8867,198.1768)">
          <path
             d="m 0,0 c -0.304,-0.753 -0.768,-1.484 -1.489,-2.113 l -1.333,-1.116 c -0.711,-0.582 -1.455,-1.194 -2.158,-1.845 0.956,-0.989 3.367,-3.484 3.858,-3.991 0.271,1.291 0.972,4.933 1.116,8.894 C -0.005,-0.115 -0.002,-0.058 0,0"
             style="fill:#000000;fill-opacity:1;fill-rule:nonzero;stroke:none"
             id="path3839"
             inkscape:connector-curvature="0" />
        </g>
        <g
           id="g3841"
           transform="translate(140.6201,197.6006)">
          <path
             d="m 0,0 c 0,0 0.123,0.486 0.146,0.682 -0.381,0.146 -1.192,0.588 -1.743,1.139 -0.725,0.726 0.025,1.127 0.423,1.191 0.567,0.09 1.065,-0.06 1.403,-0.424 C 0.473,2.324 0.617,2.045 0.664,1.166 0.698,0.527 0.46,-0.718 0.458,-0.717 0.413,-1.042 0.354,-1.503 0.354,-1.852 c 0,-0.434 0.037,-0.897 0.106,-1.399 0.101,0.634 0.233,1.283 0.366,1.922 0.263,1.281 0.511,2.49 0.437,3.314 C 1.202,2.659 0.903,3.161 0.37,3.475 -0.271,3.855 -1.222,3.903 -1.942,3.59 -2.559,3.321 -2.867,2.771 -2.996,2.468 -2.167,1.131 -0.579,0.284 0,0"
             style="fill:#000000;fill-opacity:1;fill-rule:nonzero;stroke:none"
             id="path3843"
             inkscape:connector-curvature="0" />
        </g>
        <g
           id="g3845"
           transform="translate(138.458,201.6973)">
          <path
             d="m 0,0 c 0.886,0.385 2.017,0.326 2.814,-0.146 0.477,-0.282 1.063,-0.843 1.162,-1.916 0.042,-0.474 -0.009,-1.043 -0.104,-1.667 1.323,0.279 4.996,0.647 8.08,-2.842 0.102,0.083 0.203,0.167 0.303,0.249 l 0.947,0.791 C 11.735,-1.83 11.515,5.893 11.506,6.232 l 0,16.803 C 11.188,23.04 9.828,23.055 8.746,23.067 8.838,22.714 8.859,22.3 8.81,21.814 8.527,19.06 7.667,10.677 5.389,6.965 3.461,3.823 -0.853,1.966 -2.31,1.409 -2.063,0.587 -1.729,-0.107 -1.169,-1.069 -0.953,-0.698 -0.59,-0.256 0,0"
             style="fill:#000000;fill-opacity:1;fill-rule:nonzero;stroke:none"
             id="path3847"
             inkscape:connector-curvature="0" />
        </g>
        <g
           id="g3849"
           transform="translate(150.5166,224.7065)">
          <path
             d="m 0,0 0,-16.77 c 0.002,-0.079 0.22,-7.708 1.589,-11.391 1.701,1.539 1.771,3.713 1.821,5.306 l 0.028,0.654 c 0.067,1.201 0.083,2.69 0.083,3.816 0,0.968 -0.012,1.668 -0.012,1.69 10e-4,0.045 0.093,2.683 0.093,5.744 0,1.987 -0.038,4.153 -0.164,5.903 C 3.146,-1.038 1.662,-0.153 0,0"
             style="fill:#000000;fill-opacity:1;fill-rule:nonzero;stroke:none"
             id="path3851"
             inkscape:connector-curvature="0" />
        </g>
        <g
           id="g3853"
           transform="translate(144.6655,191.5723)">
          <path
             d="m 0,0 c -1.123,-1.452 -1.358,-2.729 -1.399,-3.352 0.581,-0.836 1.268,-1.47 2.051,-1.709 3.685,-1.133 6.528,1.289 7.234,1.971 -0.093,0.102 -0.125,0.137 -0.212,0.233 -3.11,-2.018 -5.479,-2.132 -6.461,-1.325 -0.366,0.301 -0.552,0.722 -0.552,1.213 0,0.302 0.07,0.633 0.214,0.979 C 1.736,0.076 3.557,1.736 5.318,3.201 2.176,6.748 -1.494,6.063 -2.436,5.81 -2.509,5.416 -2.593,5.005 -2.678,4.587 -2.829,3.86 -2.981,3.117 -3.083,2.405 -2.5,3.627 -1.594,4.642 -1.594,4.642 L 1.591,1.77 C 1.591,1.77 1.096,1.417 0,0"
             style="fill:#000000;fill-opacity:1;fill-rule:nonzero;stroke:none"
             id="path3855"
             inkscape:connector-curvature="0" />
        </g>
        <path
           d="m 139.534,217.115 -2.08,0 0,-2.265 2.08,0 0,2.265 z"
           style="fill:#000000;fill-opacity:1;fill-rule:nonzero;stroke:none"
           id="path3857"
           inkscape:connector-curvature="0" />
        <g
           id="g3859"
           transform="translate(137.0396,220.21)">
          <path
             d="M 0,0 0,2.309 -1.855,2.306 C -1.899,1.653 -1.94,0.844 -1.974,0 L 0,0 z"
             style="fill:#000000;fill-opacity:1;fill-rule:nonzero;stroke:none"
             id="path3861"
             inkscape:connector-curvature="0" />
        </g>
        <g
           id="g3863"
           transform="translate(139.9492,220.21)">
          <path
             d="M 0,0 2.073,0 C 2.077,1.041 2.079,1.872 2.08,2.313 L 0,2.311 0,0 z"
             style="fill:#000000;fill-opacity:1;fill-rule:nonzero;stroke:none"
             id="path3865"
             inkscape:connector-curvature="0" />
        </g>
        <g
           id="g3867"
           transform="translate(137.0396,217.5293)">
          <path
             d="m 0,0 0,2.267 -1.99,0 C -2.019,1.488 -2.04,0.701 -2.052,0 L 0,0 z"
             style="fill:#000000;fill-opacity:1;fill-rule:nonzero;stroke:none"
             id="path3869"
             inkscape:connector-curvature="0" />
        </g>
        <g
           id="g3871"
           transform="translate(137.0396,212.1694)">
          <path
             d="m 0,0 0,2.267 -2.046,0 C -2.037,1.462 -2.018,0.709 -1.995,0 L 0,0 z"
             style="fill:#000000;fill-opacity:1;fill-rule:nonzero;stroke:none"
             id="path3873"
             inkscape:connector-curvature="0" />
        </g>
        <g
           id="g3875"
           transform="translate(137.0396,209.4902)">
          <path
             d="m 0,0 0,2.266 -1.981,0 C -1.951,1.444 -1.916,0.691 -1.876,0 L 0,0 z"
             style="fill:#000000;fill-opacity:1;fill-rule:nonzero;stroke:none"
             id="path3877"
             inkscape:connector-curvature="0" />
        </g>
        <g
           id="g3879"
           transform="translate(139.5337,220.21)">
          <path
             d="M 0,0 0,2.31 -2.08,2.309 -2.08,0 0,0 z"
             style="fill:#000000;fill-opacity:1;fill-rule:nonzero;stroke:none"
             id="path3881"
             inkscape:connector-curvature="0" />
        </g>
        <path
           d="m 139.534,219.796 -2.08,0 0,-2.267 2.08,0 0,2.267 z"
           style="fill:#000000;fill-opacity:1;fill-rule:nonzero;stroke:none"
           id="path3883"
           inkscape:connector-curvature="0" />
        <g
           id="g3885"
           transform="translate(135.2974,223.729)">
          <path
             d="M 0,0 C -0.024,-0.157 -0.048,-0.384 -0.072,-0.659 L 11.37,-0.65 c 0.018,0.178 0.036,0.342 0.051,0.49 0.015,0.154 0.023,0.299 0.023,0.436 0,0.528 -0.12,0.921 -0.364,1.191 C 10.744,1.84 10.131,2.02 9.209,2.02 7.068,2.02 2.263,1.975 2.213,1.974 0.94,1.971 0.196,1.306 0,0"
             style="fill:#000000;fill-opacity:1;fill-rule:nonzero;stroke:none"
             id="path3887"
             inkscape:connector-curvature="0" />
        </g>
        <g
           id="g3889"
           transform="translate(137.0396,217.1152)">
          <path
             d="m 0,0 -2.058,0 c -0.002,-0.218 -0.003,-0.427 -0.003,-0.618 0,-0.57 0.003,-1.118 0.009,-1.647 L 0,-2.265 0,0 z"
             style="fill:#000000;fill-opacity:1;fill-rule:nonzero;stroke:none"
             id="path3891"
             inkscape:connector-curvature="0" />
        </g>
        <g
           id="g3893"
           transform="translate(142.0034,211.7559)">
          <path
             d="m 0,0 -2.054,0 0,-2.266 2.05,0 c 0,0.101 0.002,0.989 0.004,2.266"
             style="fill:#000000;fill-opacity:1;fill-rule:nonzero;stroke:none"
             id="path3895"
             inkscape:connector-curvature="0" />
        </g>
        <path
           d="m 137.454,209.49 2.08,0 0,2.266 -2.08,0 0,-2.266 z"
           style="fill:#000000;fill-opacity:1;fill-rule:nonzero;stroke:none"
           id="path3897"
           inkscape:connector-curvature="0" />
        <g
           id="g3899"
           transform="translate(139.9492,212.1694)">
          <path
             d="M 0,0 2.055,0 C 2.057,0.685 2.058,1.457 2.061,2.267 L 0,2.267 0,0 z"
             style="fill:#000000;fill-opacity:1;fill-rule:nonzero;stroke:none"
             id="path3901"
             inkscape:connector-curvature="0" />
        </g>
        <g
           id="g3903"
           transform="translate(135.7852,203.5625)">
          <path
             d="m 0,0 c 1.192,0.448 5.696,2.301 7.59,5.388 1.979,3.224 2.868,10.191 3.234,13.577 L 6.658,18.961 6.626,5.512 l -7.223,0 C -0.4,2.397 -0.121,0.649 0,0"
             style="fill:#000000;fill-opacity:1;fill-rule:nonzero;stroke:none"
             id="path3905"
             inkscape:connector-curvature="0" />
        </g>
        <path
           d="m 137.454,212.169 2.08,0 0,2.267 -2.08,0 0,-2.267 z"
           style="fill:#000000;fill-opacity:1;fill-rule:nonzero;stroke:none"
           id="path3907"
           inkscape:connector-curvature="0" />
        <g
           id="g3909"
           transform="translate(142.0225,219.7959)">
          <path
             d="m 0,0 -2.073,0 0,-2.267 2.069,0 C -0.003,-1.467 -0.002,-0.697 0,0"
             style="fill:#000000;fill-opacity:1;fill-rule:nonzero;stroke:none"
             id="path3911"
             inkscape:connector-curvature="0" />
        </g>
        <g
           id="g3913"
           transform="translate(139.9492,217.1152)">
          <path
             d="m 0,0 0,-2.265 2.062,0 C 2.063,-1.52 2.065,-0.751 2.066,0 L 0,0 z"
             style="fill:#000000;fill-opacity:1;fill-rule:nonzero;stroke:none"
             id="path3915"
             inkscape:connector-curvature="0" />
        </g>
      </g>
      <path
         id="path16959"
         d="m 365.09003,497.19871 c 3.58105,-0.40328 6.13448,-3.64698 5.70601,-7.24546 0.093,-1.73139 -0.97137,-50.84805 -1.10319,-55.83475 -0.0812,-3.1991 0.86471,-8.19158 1.85157,-11.08048 1.617,-4.72689 2.51856,-7.74955 7.35404,-14.68479 3.10989,-4.46903 3.44338,-7.58086 0.091,-12.3446 -2.87335,-4.08126 -6.93912,-7.56925 -10.41544,-8.73061 -0.62431,-0.20551 -0.98882,0.0755 -0.82013,0.72321 l 2.46038,10.53952 c 0.21133,0.90156 -0.34707,1.79731 -1.24473,2.00865 l -8.02294,2.23935 c -0.3257,-0.0641 -0.6689,-0.32767 -0.83563,-0.60685 -0.26758,-0.44592 -0.11042,-1.00433 0.32381,-1.29125 0.2908,-0.19196 0.19385,-0.41882 0.1221,-0.7426 -0.0447,-0.20938 -2.22771,-8.99622 -2.47586,-9.81443 -0.15513,-0.50989 -0.44789,-0.39356 -0.9171,0.043 -3.18165,3.03233 -6.5242,10.02572 -5.6149,14.96009 0.005,0.0291 0.0483,0.041 0.10285,0.0484 l -2.52245,0.6999 c -0.68438,0.11626 -0.90737,0.46145 -0.24236,1.03147 0.66505,0.57002 4.15109,4.61251 4.47099,4.96344 0,0 4.12005,4.73659 5.31631,7.45485 1.19433,2.72601 1.68679,9.19979 1.4386,14.1865 -0.24621,4.977 -2.40027,55.58659 -2.33436,57.31603 h 0.0231 c 0.006,0.12421 0.0173,0.25208 0.0369,0.37807 0.42269,3.60238 3.67024,6.19071 7.25127,5.78358 z m -5.74865,-87.76167 c -0.0112,0 -0.0157,0.0155 -0.0231,0.041 -0.0543,-0.26756 0.0851,-0.52349 0.3432,-0.60686 l 6.73553,-1.90976 c 0.28695,-0.0831 0.60686,0.0755 0.70766,0.3645 l 0.51187,1.4425 -1.1284,0.3141 c -0.31216,-0.6689 -0.53126,-1.1187 -0.53126,-1.1187 l -0.98297,0.26367 c -0.07,0.0191 -0.13382,0.62817 -0.043,1.29127 l -0.26755,0.0718 c -0.33932,-0.72124 -0.58167,-1.22535 -0.58167,-1.22535 l -0.98493,0.26755 c -0.0701,0.0173 -0.14154,0.70187 -0.0231,1.39986 l -0.23848,0.064 c -0.36841,-0.7775 -0.63208,-1.32813 -0.63208,-1.32813 l -0.98493,0.26757 c -0.0755,0.0191 -0.14348,0.77552 -0.005,1.51425 l -0.20552,0.0543 c -0.39551,-0.83757 -0.68246,-1.4328 -0.68246,-1.4328 l -0.98495,0.26562 z m 2.8113,7.99189 -0.68829,-1.9175 0.54094,-0.15123 0.37034,0.82983 c 0,0 0.81235,-0.20746 0.98491,-0.26756 0.0271,-0.005 0.0251,-0.41104 -0.0311,-0.93259 l 0.50411,-0.13766 0.42073,0.9345 c 0,0 0.81625,-0.20941 0.98492,-0.26366 0.0291,-0.0124 0.0251,-0.48085 -0.0467,-1.05087 l 0.47306,-0.12799 0.46922,1.04112 c 0,0 0.81237,-0.20745 0.98298,-0.26755 0.0309,-0.0112 0.0231,-0.53899 -0.0601,-1.16524 l 0.43427,-0.12222 0.5177,1.15166 c 0,0 0.81819,-0.21132 0.98686,-0.26755 0.033,-0.007 0.0211,-0.60685 -0.0775,-1.27963 l 0.32378,-0.091 0.60687,1.71395 c 0.10285,0.29081 -0.0465,0.59909 -0.33156,0.68827 l -6.65603,2.03775 c -0.29083,0.091 -0.6088,-0.0681 -0.70963,-0.35484 z m -2.09007,73.74968 c -0.28114,-2.35183 1.39208,-4.48067 3.74196,-4.74241 2.34019,-0.26756 4.46903,1.427 4.75404,3.78267 0.28112,2.35571 -1.39596,4.48066 -3.74001,4.7463 -2.34214,0.26368 -4.47292,-1.43086 -4.75599,-3.78656 z"
         inkscape:connector-curvature="0" />
      <path
         inkscape:connector-curvature="0"
         d="m 248.0479,631.86742 c -1.15554,-0.8798 -2.65343,-1.11816 -3.89544,-1.12634 -0.58537,-0.95692 -1.51191,-1.58201 -2.50739,-1.78298 -0.0117,-0.0175 -0.0245,-0.0374 -0.0409,-0.0549 -0.021,-0.0269 -0.0421,-0.0491 -0.0689,-0.0736 -0.0222,-1.38572 -0.79218,-2.89413 -2.15687,-3.95854 -0.85761,-1.85893 -3.05771,-3.34046 -5.74035,-3.6606 -0.18928,-0.0245 -0.37039,-0.014 -0.54214,0.0152 -0.44283,-0.17994 -0.91019,-0.30963 -1.40792,-0.38558 -0.0573,-2.23865 -1.89398,-4.04383 -4.15367,-4.04383 h -0.64145 c 0.70571,-0.55382 1.12634,-1.24552 1.12634,-2.0003 0,-0.42998 -0.13904,-0.84125 -0.38791,-1.22332 1.94538,-0.0397 3.56128,-1.42078 3.96204,-3.2575 0.0292,-0.0117 0.0573,-0.021 0.0865,-0.0386 0.32949,-0.17175 0.64729,-0.36688 0.94874,-0.56901 0.0479,0.0117 0.0981,0.0175 0.15072,0.0245 0.76647,0.0911 1.51425,0.0794 2.21529,-0.0245 0.78517,0.56317 1.6381,0.90434 2.46883,1.02586 -0.09,0.75595 0.0409,1.56332 0.42413,2.30525 0.25237,0.48255 0.58771,0.89616 0.97561,1.22565 -0.23251,0.58537 -0.4288,1.34483 -0.41127,2.21763 0.0444,2.34147 1.74676,4.76591 3.90947,4.41422 2.1592,-0.35286 2.44429,-2.54011 1.24201,-3.17455 -1.20813,-0.63327 -1.74209,1.04338 -3.254,-0.90901 -0.55966,-0.71507 -0.69286,-1.41026 -0.64028,-2.00264 0.98963,0.46268 2.14051,0.48488 3.14767,-0.0456 1.2572,-0.66599 1.94772,-2.00498 1.89515,-3.40472 1.02001,0.4475 1.89164,1.22448 1.49555,2.43144 -0.45217,1.38689 0.6321,3.51455 2.41275,2.82987 1.78064,-0.67651 2.05405,-4.06487 -0.61341,-6.08971 -1.15555,-0.87513 -2.64994,-1.10998 -3.89195,-1.12049 -0.5842,-0.95576 -1.51541,-1.58319 -2.51323,-1.78532 -0.009,-0.0187 -0.0234,-0.0351 -0.0385,-0.0538 -0.021,-0.0257 -0.0421,-0.0549 -0.0689,-0.0724 -0.0222,-1.38689 -0.79218,-2.89646 -2.16154,-3.96555 -0.85761,-1.85425 -3.05303,-3.34163 -5.73568,-3.65593 -0.18928,-0.0245 -0.37039,-0.0164 -0.54214,0.0187 -0.44282,-0.18344 -0.91135,-0.3108 -1.41026,-0.38908 -0.11918,-2.19192 -1.92669,-3.93284 -4.14665,-3.93284 0.30495,-0.41361 0.48021,-0.86812 0.48021,-1.34833 0,-0.78634 -0.45685,-1.50607 -1.21047,-2.07275 h 10.31114 c 3.143,0 5.68661,-2.55061 5.68661,-5.69011 v -13.2742 c 0,-3.13599 -2.54361,-5.68544 -5.68661,-5.68544 h -12.79632 c -1.25487,-3.37317 -4.36515,-5.86537 -8.11572,-6.28015 v -8.45689 c 1.89749,-0.4919 3.29256,-2.20945 3.29256,-4.25064 0,-2.43495 -1.96759,-4.39786 -4.4002,-4.39786 -2.42794,0 -4.39786,1.96291 -4.39786,4.39786 0,2.04119 1.39974,3.76225 3.29723,4.25298 v 8.45455 c -3.75408,0.41478 -6.86436,2.90698 -8.11805,6.28015 l -12.79399,-0.004 c -3.14768,0 -5.69245,2.55412 -5.69245,5.68894 v 13.2742 c 0,3.14066 2.54477,5.69011 5.69245,5.69011 h 10.30763 c -0.75596,0.56668 -1.2093,1.28758 -1.2093,2.07275 0,0.48021 0.1741,0.93589 0.47905,1.34833 -2.21763,0.004 -4.02748,1.74092 -4.14432,3.93284 -0.4954,0.0783 -0.96977,0.20564 -1.41026,0.38908 -0.17409,-0.0339 -0.35753,-0.0421 -0.54331,-0.0187 -2.67914,0.3143 -4.87456,1.797 -5.73334,3.65359 -1.36703,1.06909 -2.13934,2.57983 -2.16271,3.96322 -0.0234,0.0222 -0.0502,0.0479 -0.0736,0.0759 -0.0117,0.0187 -0.0245,0.0351 -0.035,0.0538 -1.00132,0.20097 -1.92786,0.82957 -2.51323,1.78532 -1.24552,0.0105 -2.73756,0.24653 -3.88844,1.12049 -2.67213,2.02484 -2.39873,5.41321 -0.62159,6.08971 1.78181,0.68468 2.86843,-1.44298 2.41625,-2.82987 -0.39608,-1.20696 0.47554,-1.98394 1.49556,-2.43144 -0.0526,1.39974 0.63911,2.73873 1.89748,3.40472 1.00249,0.53045 2.16037,0.50825 3.14417,0.0456 0.0549,0.59238 -0.0771,1.28758 -0.63912,2.00264 -1.51308,1.9524 -2.04236,0.27574 -3.25166,0.90901 -1.20345,0.63444 -0.9207,2.82169 1.24201,3.17455 2.15921,0.35169 3.86624,-2.07274 3.9083,-4.41422 0.0187,-0.8728 -0.17759,-1.63226 -0.40777,-2.21763 0.38791,-0.32948 0.72207,-0.7431 0.96977,-1.22565 0.38675,-0.74193 0.51761,-1.54813 0.42881,-2.30525 0.82839,-0.12152 1.68483,-0.46269 2.47,-1.02586 0.70221,0.10399 1.44414,0.11567 2.21529,0.0245 0.0526,-0.007 0.0993,-0.0129 0.14955,-0.0245 0.30145,0.20213 0.61341,0.39726 0.94874,0.56901 0.0292,0.0187 0.0608,0.0269 0.0841,0.0432 0.4066,1.83206 2.01899,3.21311 3.96438,3.25283 -0.2512,0.38207 -0.38908,0.79335 -0.38908,1.22332 0,0.75478 0.41829,1.44648 1.12517,2.0003 h -0.63794 c -2.26436,0 -4.09758,1.80518 -4.15951,4.04384 -0.4919,0.0759 -0.9651,0.20563 -1.40325,0.38557 -0.17409,-0.028 -0.35753,-0.0386 -0.54331,-0.0152 -2.68031,0.31897 -4.88157,1.80167 -5.73918,3.65826 -1.36119,1.06558 -2.1335,2.57282 -2.15687,3.96088 -0.0234,0.0245 -0.0502,0.0456 -0.0736,0.0736 -0.0117,0.0175 -0.0245,0.0374 -0.0374,0.0549 -0.99781,0.20097 -1.92319,0.82606 -2.50855,1.78298 -1.24318,0.008 -2.7399,0.24771 -3.89078,1.12634 -2.67213,2.02017 -2.39873,5.41437 -0.62159,6.08854 1.78181,0.67066 2.86843,-1.44414 2.41625,-2.83571 -0.39608,-1.20813 0.47554,-1.98044 1.49556,-2.43027 -0.0549,1.3974 0.63444,2.74223 1.89748,3.40355 1.00249,0.52928 2.16037,0.50825 3.14417,0.0444 0.0561,0.59471 -0.0771,1.28758 -0.63912,2.00731 -1.51308,1.95941 -2.04236,0.26756 -3.25166,0.91135 -1.20345,0.63445 -0.9207,2.81351 1.24201,3.17221 2.15921,0.34702 3.86624,-2.07975 3.9083,-4.41772 0.0187,-0.86696 -0.17759,-1.62642 -0.40777,-2.21529 0.38791,-0.32715 0.72207,-0.73726 0.96977,-1.21981 0.38675,-0.75011 0.51761,-1.55281 0.42881,-2.3146 0.82606,-0.12152 1.68483,-0.46152 2.47,-1.02469 0.70221,0.10399 1.44414,0.11801 2.21529,0.0245 0.0526,-0.006 0.097,-0.0152 0.14955,-0.0245 0.29444,0.20681 0.61341,0.40076 0.94874,0.57602 0.0374,0.021 0.076,0.0386 0.11567,0.0538 0.44166,1.75143 1.99914,3.06471 3.87208,3.13014 -0.21148,0.3552 -0.32832,0.73726 -0.32832,1.13335 0,0.7174 0.37623,1.37404 1.02002,1.91501 h -0.53279 c -1.70587,0 -3.16754,1.02118 -3.80665,2.48753 -1.61824,0.62042 -2.99461,1.53644 -3.98425,2.6511 -0.25705,0.0736 -0.50358,0.18461 -0.7396,0.33533 -3.32527,2.15103 -5.21107,5.42489 -5.08488,8.29565 -0.82723,1.71287 -1.00833,3.52389 -0.63094,5.06151 -1.3974,1.15087 -2.29123,2.89997 -2.29123,4.85821 0,2.24216 1.18009,4.21092 2.95489,5.32207 v 5.85018 c 0,0.0608 0,0.12151 0.002,0.17993 0,0.002 0.001,0.002 0.001,0.005 0.097,1.82153 1.60188,3.26217 3.44094,3.26217 1.83556,0 3.3428,-1.43479 3.44562,-3.24815 0,-0.005 0,-0.014 0,-0.0187 0.002,-0.0596 0.007,-0.12034 0.007,-0.17993 v -6.00441 c 1.63926,-1.13452 2.71653,-3.0285 2.71653,-5.16784 0,-1.20579 -0.34001,-2.33213 -0.92771,-3.28671 0.49306,-0.52578 0.93589,-1.12634 1.29926,-1.80401 0.68936,-0.23018 1.37638,-0.52812 2.05171,-0.89149 0.47554,0.19162 0.99782,0.2921 1.54346,0.2921 h 24.86007 c 0.59121,0 1.15321,-0.11918 1.65913,-0.34001 0.70571,0.38558 1.42311,0.69871 2.14401,0.9394 0.33533,0.61808 0.73142,1.17541 1.17658,1.66847 -0.64028,0.98497 -1.01183,2.15921 -1.01183,3.42342 0,2.23048 1.1719,4.19222 2.92567,5.30688 v 5.86537 c 0,0.0607 0,0.12151 0.007,0.17993 v 0.002 c 0.0946,1.8227 1.60305,3.26451 3.44562,3.26451 1.83789,0 3.33695,-1.4348 3.43977,-3.24815 v -0.0187 c 0.004,-0.0596 0.006,-0.12034 0.006,-0.17993 v -5.98572 c 1.65562,-1.13452 2.74574,-3.03551 2.74574,-5.18536 0,-1.87412 -0.82138,-3.55778 -2.12298,-4.70749 0.43114,-1.56916 0.26756,-3.43627 -0.59004,-5.21224 0.12735,-2.86725 -1.75611,-6.14462 -5.08138,-8.29564 -0.23719,-0.15073 -0.48605,-0.26289 -0.73609,-0.33533 -1.04572,-1.17191 -2.5109,-2.12416 -4.24247,-2.74808 -0.66598,-1.41026 -2.10078,-2.39055 -3.76458,-2.39055 h -0.53864 c 0.6473,-0.54097 1.02352,-1.19644 1.02352,-1.91501 0,-0.39609 -0.11684,-0.77816 -0.33065,-1.13335 1.87411,-0.0654 3.43626,-1.37871 3.87792,-3.13015 0.0374,-0.0187 0.0748,-0.0327 0.11333,-0.0537 0.33533,-0.17526 0.64963,-0.36922 0.94874,-0.57602 0.0526,0.009 0.0982,0.0187 0.15073,0.0245 0.76647,0.0923 1.51425,0.0783 2.21529,-0.0245 0.78516,0.56317 1.63809,0.90317 2.46883,1.02468 -0.09,0.7618 0.0386,1.56566 0.42413,2.31461 0.25237,0.48255 0.5877,0.89265 0.97561,1.21981 -0.23251,0.58537 -0.4288,1.34833 -0.41128,2.21528 0.0444,2.33798 1.74676,4.76474 3.90947,4.41773 2.15921,-0.3587 2.4443,-2.53777 1.24201,-3.17221 -1.20812,-0.64496 -1.74208,1.04689 -3.25399,-0.91135 -0.55967,-0.71974 -0.69286,-1.4126 -0.64029,-2.00732 0.98964,0.46269 2.14051,0.48489 3.14768,-0.0444 1.2607,-0.66132 1.94772,-2.00615 1.89281,-3.40356 1.02235,0.44984 1.89397,1.22215 1.49789,2.43028 -0.45218,1.39039 0.6321,3.50637 2.41274,2.83571 1.78766,-0.67534 2.05989,-4.06954 -0.60757,-6.08971 z m -52.38408,-44.25318 c -2.91282,0 -5.27767,-2.36251 -5.27767,-5.27416 0,-2.9175 2.36368,-5.27533 5.27767,-5.27533 2.91633,0 5.27767,2.35783 5.27767,5.27533 0,2.91165 -2.36134,5.27416 -5.27767,5.27416 z m 8.6894,40.89286 c -1.48504,0 -2.69434,-1.20345 -2.69434,-2.692 0,-1.48503 1.2093,-2.69316 2.69434,-2.69316 1.48854,0 2.69316,1.20696 2.69316,2.69316 -0.001,1.48855 -1.20462,2.692 -2.69316,2.692 z m 27.56374,-54.77463 c 4.36047,0 7.90073,3.53441 7.90073,7.90189 0,4.36632 -3.53909,7.90891 -7.90073,7.90891 -4.36982,0 -7.9054,-3.54143 -7.9054,-7.90891 0,-4.36748 3.53441,-7.90189 7.9054,-7.90189 z m -9.74563,30.8376 c 0,-1.48504 1.20579,-2.68849 2.69316,-2.68849 1.48504,0 2.69434,1.20345 2.69434,2.68849 0,1.48854 -1.2093,2.69433 -2.69434,2.69433 -1.48737,-0.001 -2.69316,-1.20579 -2.69316,-2.69433 z m 6.86436,42.78918 c 0,1.48504 -1.20463,2.68966 -2.69434,2.68966 -1.48504,0 -2.69316,-1.20462 -2.69316,-2.68966 0,-1.48971 1.20812,-2.69317 2.69316,-2.69317 1.48855,0 2.69434,1.20229 2.69434,2.69317 z"
         id="path18186" />
      <path
         inkscape:connector-curvature="0"
         d="m 211.91698,575.16025 c -3.57531,0 -6.47762,2.90114 -6.47762,6.47411 0,3.57414 2.90231,6.47528 6.47762,6.47528 3.5718,0 6.47294,-2.90114 6.47294,-6.47528 0,-3.57297 -2.90231,-6.47411 -6.47294,-6.47411 z m 0,11.54263 c -2.80066,0 -5.06619,-2.27137 -5.06619,-5.06852 0,-2.79832 2.26436,-5.06385 5.06619,-5.06385 2.79715,0 5.06151,2.26553 5.06151,5.06385 0,2.79598 -2.26553,5.06852 -5.06151,5.06852 z"
         id="path18188" />
      <path
         id="path19732"
         d="m 207.59695,409.53026 c -2.69325,3.38156 -4.62922,9.35548 -4.62922,9.35548 0.70619,-0.85305 5.5525,-2.74433 5.5525,-2.74433 l 0.46739,-2.97163 0.46229,2.51318 c 0.48143,-0.52741 2.69708,-1.79805 2.69708,-1.79805 l -0.54657,-2.20414 1.95002,1.95129 c 1.34726,-1.25531 5.6917,-4.36487 5.6917,-4.36487 -3.5297,4.40317 -5.43885,12.10236 -5.43885,12.10236 1.56052,-1.0063 6.12844,-3.57695 6.12844,-3.57695 l 0.61553,-3.71614 0.42141,3.09935 c 1.06759,-0.88626 3.22193,-1.76103 5.01359,-2.39443 0.23243,0.2554 0.49932,0.47378 0.78921,0.66022 -2.01132,5.72874 -13.92596,41.67953 -13.75866,89.50154 0,0 6.13099,6.77462 12.32328,0.91307 0,0 -3.60248,-61.02517 5.41331,-85.09197 0.73939,4.37892 1.20806,9.10646 1.20806,9.10646 1.6231,-2.03685 2.69708,-8.19722 3.29856,-12.78301 0.56061,-0.68831 0.84539,-1.60395 0.6666,-2.54766 -0.0523,-0.28862 -0.15452,-0.55169 -0.27583,-0.8007 0.12898,-1.24637 0.1941,-2.03302 0.1941,-2.03302 0.57722,0.0358 2.9014,4.0852 2.9014,4.0852 l 2.27055,-1.85807 -1.57713,2.44422 c 1.2068,1.08292 2.62175,3.27813 2.62175,3.27813 l 2.01131,-2.39571 -1.78273,3.64846 1.55542,2.17222 1.65502,-2.7622 -1.04972,4.52195 c 0,0 1.25787,5.24473 1.65375,6.61753 0.39715,1.37408 -0.34608,3.67017 -0.34608,3.67017 3.38539,-2.78519 4.11713,-11.42553 3.8413,-15.26683 -0.28094,-3.8515 -2.74433,-9.45381 -2.74433,-9.45381 1.22595,-0.3665 4.85908,0.5504 4.85908,0.5504 l 0.30265,-3.08274 0.77388,3.4633 3.68166,1.20294 0.97565,-3.35857 0.13281,3.87578 3.56545,1.36386 0.67427,-1.85297 0.37162,2.81711 c 0.99224,0.68449 5.45416,3.56163 6.67883,4.98168 -2.59364,-14.51466 -12.73704,-17.58079 -12.73704,-17.58079 l 0.75728,-0.56445 c -3.57695,-2.22841 -8.24703,-2.53106 -8.24703,-2.53106 l 2.59875,-0.76238 -1.09952,-2.10198 c -0.29244,0.0677 -0.56445,0.13919 -0.77644,0.22348 l -1.79039,-2.69964 1.05993,2.84011 -1.11484,0.41886 -1.54902,0.38694 -1.1174,-1.95385 0.32564,1.78145 c 0,0 -4.66752,1.19785 -5.46822,1.55414 -0.79048,0.37033 -1.90788,0.19411 -1.34598,-0.88114 0,0 5.57676,-5.60487 12.74087,-6.18974 8.70548,-0.71258 16.07263,6.88188 16.07263,6.88188 0,0 -6.64309,-3.74552 -13.25551,-2.64599 l -2.86309,-2.61024 1.64736,2.5068 c 0,0 -1.44943,0.13664 -2.55661,0.38948 l 2.51703,1.98833 c 8.38366,-2.25778 16.40592,3.76467 16.40592,3.76467 -1.31022,-4.80034 -3.9792,-6.76312 -3.9792,-6.76312 l -2.01515,-0.78919 1.19275,-0.51082 c -4.62667,-4.04944 -10.46777,-4.42745 -10.46777,-4.42745 -6.59967,-0.9833 -11.1561,3.63953 -11.1561,3.63953 l -0.56571,-1.48263 -3.37391,0.47634 2.39187,-1.87851 c -2.11475,-6.82825 -13.78675,-14.63853 -13.78675,-14.63853 6.8806,9.9825 4.8463,16.99464 4.8463,16.99464 -6.67755,-6.9253 -18.05329,-2.89118 -18.05329,-2.89118 -8.14102,2.79157 -12.96179,9.15626 -12.96179,9.15626 2.77624,-1.37152 8.27128,-2.0956 8.85105,-2.06112 0.59127,0.037 3.89109,-2.44422 3.89109,-2.44422 l -2.18626,2.28715 c 0,0 -1.23616,0.36012 0.4444,0.0537 1.67291,-0.30522 3.47989,0.0856 3.47989,0.0856 l 1.52988,-1.86446 -1.00629,2.34717 c 2.52851,-0.32692 6.11311,0.32181 6.11311,0.32181 -4.48619,0.67809 -11.28123,7.69407 -11.28123,7.69407 l -1.9564,1.93724 -1.42516,1.70483 z m 24.63252,-10.26601 c -4.20524,-3.17468 -8.81785,-2.40079 -8.81785,-2.40079 l 0.76877,-2.39827 -1.70611,1.68058 -2.40846,-0.85178 0.84793,-2.01515 -2.93076,0.71769 c -1.66141,-1.14165 -8.31088,-0.34351 -8.31088,-0.34351 13.91829,-7.15901 20.61372,1.13782 20.61372,1.13782 1.57075,1.56946 1.94364,4.47341 1.94364,4.47341 z m 2.10709,0.74835 -1.46602,0.23752 0.41248,-1.29873 c 0,0 2.95758,-8.2432 -1.39324,-17.13384 0,0 3.4301,2.64344 4.87313,5.44395 l -0.79048,1.38303 1.56052,-0.24776 1.27703,2.93078 -2.32929,0.83645 2.10709,1.2898 c 0,0 0.24135,0.88241 0.37544,2.36122 -0.002,0 -1.22466,2.31906 -4.62666,4.19758 z m -0.69598,6.52814 c 0,0 -2.29864,-1.75974 -3.39049,-1.75718 0,0 4.63304,-3.32154 9.215,-0.99226 0,0 16.29866,-7.24838 26.33736,11.89421 0,0 -7.57659,-13.25423 -24.73852,-10.20981 0,0 8.51008,7.31097 7.5421,18.78503 -0.0217,0.78281 -0.39332,1.06377 -0.39332,1.06377 0.06,-0.41759 0.0856,-1.02291 0.11999,-1.43411 0.0702,-2.48892 -1.51583,-9.64281 -6.69289,-14.7509 -2.80051,-2.76604 -7.99928,-2.59875 -7.99928,-2.59875 z m -0.4112,3.23599 c -0.61808,-1.70611 -2.68686,-2.63324 -5.03275,-1.28469 0.46866,-1.17232 1.50051,-2.08666 2.83499,-2.33441 2.07006,-0.38182 3.674,3.1185 3.47607,6.30851 -0.1673,2.69834 -0.96671,9.5547 -1.7125,12.21984 0.65639,-5.6189 1.0561,-13.19932 0.43419,-14.90925 z m -7.98651,12.48418 c 0.94116,-0.91946 3.3905,-0.42907 3.96516,-1.51966 0.68449,-1.32043 -1.28725,-2.75325 -1.97811,-3.25385 l 0.0984,-0.28095 c 1.30129,-0.34096 2.14413,-0.32819 2.69197,-0.1149 0.21071,0.87732 0.4061,1.85169 0.58871,2.86948 -0.26818,0.81602 -0.64362,1.54009 -0.74068,1.80827 -3.9907,10.92749 -4.99827,32.2819 -5.46438,39.0016 -0.484,6.73503 -0.2503,37.61986 -0.2503,37.61986 0,0 0,0 0.33841,3.09551 0.33203,3.09295 0.0472,3.3241 0.0472,3.3241 -1.6282,2.7622 -6.82187,2.01131 -8.77572,-0.21327 2.19138,-0.33458 6.1974,1.39451 7.31352,-1.134 0.47122,-1.04588 0.0128,-3.09807 -0.0638,-4.12095 -0.10732,-1.48008 -0.0217,-2.98058 -0.0549,-4.49385 -0.0614,-2.19649 0.56061,-6.19358 -0.71513,-7.89201 -1.6844,-2.26162 -5.753,-0.42909 -7.26755,-2.07517 2.02153,-2.01515 6.44131,0.91434 8.25979,-1.68312 1.07653,-1.53116 0.49037,-7.06322 -0.29882,-8.53307 -2.49659,-1.32683 -5.17962,-0.0894 -7.63533,-1.19147 1.46602,-1.33832 5.07106,-0.19794 6.94445,-0.76366 1.24766,-1.40984 1.40601,-5.61125 0.66406,-7.3033 -1.20552,-2.68303 -3.96261,-1.48391 -6.32,-2.21309 0.007,-0.0843 0.0358,-0.42269 0.0217,-0.50314 3.54629,-1.46348 6.77973,-0.12898 7.40418,-5.0583 0.19284,-1.46858 0.63342,-4.74542 0.0421,-6.04671 -0.89647,-1.94618 -3.35602,-1.05992 -5.03913,-1.62438 2.79796,-1.34853 5.56654,0.99737 6.05565,-3.15296 0.50824,-4.37509 -2.47872,-2.11093 -4.96508,-3.69571 1.13145,-0.77899 3.1849,0.15196 4.39042,-0.57466 1.31788,-0.7956 1.27574,-2.43912 1.36513,-3.75446 0.0881,-1.16464 0.49038,-3.55779 -0.27456,-4.46065 -0.82751,-0.9833 -2.78392,-0.26689 -3.27301,-1.40855 2.2118,-0.13282 3.65356,1.11228 4.33805,-1.77379 0.73685,-3.12233 -0.10595,-2.93333 -2.44806,-3.81703 2.05474,-1.28979 3.54758,0.36523 4.3521,-2.64599 0.74962,-2.78903 -0.92967,-2.19393 -3.31643,-2.41613 z m 6.73375,-20.75931 c 0,0 -3.02655,3.5246 -4.89611,5.56783 l -1.04972,-1.78528 0.41504,2.26544 c 0,0 -2.27693,1.75974 -2.79158,2.39442 l -0.58104,-2.68175 0.22348,3.19512 c 0,0 -4.94847,4.31634 -5.66999,5.79897 0,0 5.35583,-20.73505 14.34992,-14.75475 z m -23.97996,11.06414 c 0,0 6.22676,-13.8506 18.14524,-13.37427 0,0 -7.4987,7.48719 -8.68377,9.07964 l -0.97054,-2.09176 -0.0984,2.18881 c 0,0.001 -5.38649,1.28852 -8.3926,4.19758 z"
         inkscape:connector-curvature="0" />
      <g
         transform="matrix(1.8774327,0,0,1.8774327,-620.80888,448.42402)"
         id="g23442">
        <g
           id="g23444">
          <path
             id="path23446"
             d="m 516.681,102.749 c 3.55,2.631 8.595,4.214 14.469,4.27 v 2.558 c -7,-0.056 -12.769,-1.986 -16.782,-5.07 l 2.313,-1.758 z"
             inkscape:connector-curvature="0" />
          <path
             id="path23448"
             d="m 548.414,104.625 c -4.006,3.016 -9.715,4.896 -16.626,4.952 v -2.558 c 5.787,-0.055 10.771,-1.593 14.312,-4.155 l 2.314,1.761 z"
             inkscape:connector-curvature="0" />
          <path
             id="path23450"
             d="m 498.372,73.948 h -3.107 c 0.507,-4.483 3.15,-8.462 7.439,-11.256 l 2.341,1.782 c -3.732,2.283 -6.155,5.582 -6.673,9.474 z"
             inkscape:connector-curvature="0" />
          <path
             id="path23452"
             d="m 518.626,78.101 c 3.493,-1.597 7.675,-2.524 12.523,-2.564 v 2.558 c -4.757,0.045 -8.968,1.094 -12.284,2.888 l -0.239,-2.882 z"
             inkscape:connector-curvature="0" />
          <path
             id="path23454"
             d="m 544.207,81.052 c -3.337,-1.837 -7.6,-2.912 -12.419,-2.957 v -2.558 c 5.913,0.047 10.945,1.431 14.786,3.719 l -2.367,1.796 z"
             inkscape:connector-curvature="0" />
          <path
             id="path23456"
             d="m 544.808,81.398 2.348,-1.783 c 4.37,2.797 7.066,6.814 7.581,11.347 h -3.106 c -0.53,-3.942 -3.01,-7.277 -6.823,-9.564 z"
             inkscape:connector-curvature="0" />
          <path
             id="path23458"
             d="m 548.933,104.219 -2.306,-1.753 c 3.221,-2.532 5.108,-5.965 5.108,-9.909 0,-0.323 -0.014,-0.642 -0.039,-0.958 h 3.098 c 0.02,0.317 0.032,0.636 0.032,0.958 10e-4,4.512 -2.121,8.615 -5.893,11.662 z"
             inkscape:connector-curvature="0" />
          <path
             id="path23460"
             d="m 527.47,102.664 c 0,-0.652 0.726,-1.126 1.722,-1.126 0.997,0 1.72,0.474 1.72,1.126 0,0.654 -0.723,1.127 -1.72,1.127 -0.996,0.001 -1.722,-0.473 -1.722,-1.127 z"
             inkscape:connector-curvature="0" />
          <path
             id="path23462"
             d="m 524.57,92.456 c 0,0.415 -0.479,0.715 -1.139,0.715 -0.661,0 -1.14,-0.3 -1.14,-0.715 0,-0.414 0.479,-0.715 1.14,-0.715 0.659,0 1.139,0.301 1.139,0.715 z"
             inkscape:connector-curvature="0" />
          <path
             id="path23464"
             d="m 536.085,95.413 c -1.366,0 -2.36,0.743 -2.36,1.766 0,1.022 0.994,1.765 2.36,1.765 1.365,0 2.356,-0.743 2.356,-1.765 0,-0.048 -0.005,-0.096 -0.009,-0.142 l 7.134,5.424 c -3.421,2.417 -8.219,3.867 -13.779,3.92 v -3.215 c 0.391,0.42 1.06,0.696 1.914,0.696 1.391,0 2.295,-0.729 2.295,-1.627 0,-0.899 -0.904,-1.628 -2.295,-1.628 -0.854,0 -1.523,0.275 -1.914,0.695 v -9.318 l 4.522,3.438 c -0.073,-0.005 -0.148,-0.009 -0.224,-0.009 z"
             inkscape:connector-curvature="0" />
          <path
             id="path23466"
             d="m 524.389,96.898 c 0,0.005 -0.002,0.012 -0.002,0.019 0,0.898 0.905,1.627 2.295,1.627 1.391,0 2.296,-0.729 2.296,-1.627 0,-0.9 -0.905,-1.627 -2.296,-1.627 -0.06,0 -0.122,0.002 -0.18,0.004 l 4.647,-3.528 v 9.876 c -0.414,-0.458 -1.113,-0.742 -1.958,-0.742 -1.368,0 -2.358,0.742 -2.358,1.764 0,1.023 0.99,1.766 2.358,1.766 0.845,0 1.544,-0.285 1.958,-0.743 v 2.694 c -5.647,-0.055 -10.507,-1.549 -13.937,-4.033 l 7.177,-5.45 z"
             inkscape:connector-curvature="0" />
          <path
             id="path23468"
             d="m 536.085,98.304 c -0.996,0 -1.722,-0.473 -1.722,-1.125 0,-0.653 0.726,-1.127 1.722,-1.127 0.996,0 1.719,0.474 1.719,1.127 0,0.652 -0.722,1.125 -1.719,1.125 z"
             inkscape:connector-curvature="0" />
          <path
             id="path23470"
             d="m 536.539,92.456 c 0,-0.414 0.48,-0.715 1.143,-0.715 0.659,0 1.138,0.301 1.138,0.715 0,0.415 -0.479,0.715 -1.138,0.715 -0.663,0 -1.143,-0.3 -1.143,-0.715 z"
             inkscape:connector-curvature="0" />
          <path
             id="path23472"
             d="m 543.971,85.438 c 0,0.653 -0.723,1.126 -1.72,1.126 -0.996,0 -1.72,-0.473 -1.72,-1.126 0,-0.652 0.724,-1.127 1.72,-1.127 0.998,0 1.72,0.475 1.72,1.127 z"
             inkscape:connector-curvature="0" />
          <path
             id="path23474"
             d="m 510.707,70.84 c -0.661,0 -1.14,-0.3 -1.14,-0.714 0,-0.415 0.479,-0.715 1.14,-0.715 0.659,0 1.139,0.3 1.139,0.715 -10e-4,0.415 -0.48,0.714 -1.139,0.714 z"
             inkscape:connector-curvature="0" />
          <path
             id="path23476"
             d="m 538.747,85.198 c 0.009,-0.063 0.014,-0.126 0.014,-0.191 0,-0.898 -0.903,-1.627 -2.294,-1.627 -1.391,0 -2.295,0.729 -2.295,1.627 0,0.899 0.904,1.627 2.295,1.627 0.146,0 0.285,-0.01 0.421,-0.025 l -5.1,3.872 v -8.496 c 0.311,0.213 0.73,0.34 1.212,0.34 1.03,0 1.778,-0.569 1.778,-1.353 0,-0.784 -0.748,-1.353 -1.778,-1.353 -0.481,0 -0.901,0.126 -1.212,0.34 v -1.226 c 4.589,0.043 8.655,1.039 11.86,2.744 l -4.901,3.721 z"
             inkscape:connector-curvature="0" />
          <path
             id="path23478"
             d="m 529.78,87.033 c 0,-0.783 -0.747,-1.353 -1.777,-1.353 -0.995,0 -1.725,0.533 -1.772,1.276 l -7.099,-5.397 c 3.229,-1.755 7.354,-2.781 12.019,-2.826 v 1.748 c -0.368,-0.491 -1.083,-0.824 -2.021,-0.824 -1.391,0 -2.296,0.729 -2.296,1.628 0,0.898 0.905,1.628 2.296,1.628 0.938,0 1.652,-0.333 2.021,-0.824 v 8.607 l -3.043,-2.314 c 0.973,-0.037 1.672,-0.591 1.672,-1.349 z"
             inkscape:connector-curvature="0" />
          <path
             id="path23480"
             d="m 528.002,86.318 c 0.66,0 1.141,0.3 1.141,0.714 0,0.415 -0.48,0.715 -1.141,0.715 -0.659,0 -1.138,-0.3 -1.138,-0.715 10e-4,-0.413 0.479,-0.714 1.138,-0.714 z"
             inkscape:connector-curvature="0" />
          <path
             id="path23482"
             d="m 536.274,91.599 c -0.234,0.229 -0.371,0.523 -0.371,0.857 0,0.784 0.748,1.354 1.778,1.354 1.028,0 1.776,-0.569 1.776,-1.354 0,-0.333 -0.138,-0.628 -0.372,-0.857 h 11.97 c 0.027,0.315 0.043,0.635 0.043,0.958 0,3.789 -1.847,7.085 -4.996,9.509 l -2.8,-2.129 c 0.248,0.062 0.522,0.097 0.82,0.097 1.392,0 2.295,-0.729 2.295,-1.627 0,-0.899 -0.903,-1.627 -2.295,-1.627 -1.391,0 -2.297,0.728 -2.297,1.627 0,0.166 0.032,0.328 0.092,0.48 l -9.58,-7.286 h 3.937 z"
             inkscape:connector-curvature="0" />
          <path
             id="path23484"
             d="m 547.706,87.99 c 0,-0.414 0.479,-0.714 1.14,-0.714 0.66,0 1.138,0.3 1.138,0.714 0,0.415 -0.478,0.714 -1.138,0.714 -0.662,0.001 -1.14,-0.299 -1.14,-0.714 z"
             inkscape:connector-curvature="0" />
          <path
             id="path23486"
             d="m 549.45,86.71 c -0.188,-0.046 -0.389,-0.073 -0.604,-0.073 -1.03,0 -1.778,0.569 -1.778,1.353 0,0.784 0.748,1.353 1.778,1.353 0.696,0 1.264,-0.262 1.556,-0.674 0.276,0.736 0.472,1.501 0.582,2.292 h -8.257 c 0.648,-0.288 1.033,-0.798 1.033,-1.382 0,-0.899 -0.904,-1.628 -2.295,-1.628 -1.391,0 -2.295,0.729 -2.295,1.628 0,0.584 0.383,1.095 1.032,1.382 h -7.991 l 7.723,-5.865 c -0.023,0.109 -0.04,0.223 -0.04,0.341 0,1.023 0.993,1.765 2.358,1.765 1.367,0 2.358,-0.742 2.358,-1.765 0,-1.022 -0.991,-1.765 -2.358,-1.765 -0.167,0 -0.329,0.012 -0.484,0.034 l 2.491,-1.891 c 2.237,1.298 4.01,2.961 5.191,4.895 z"
             inkscape:connector-curvature="0" />
          <path
             id="path23488"
             d="m 534.139,80.972 c 0,0.414 -0.479,0.715 -1.14,0.715 -0.659,0 -1.138,-0.301 -1.138,-0.715 0,-0.415 0.479,-0.715 1.138,-0.715 0.662,0 1.14,0.301 1.14,0.715 z"
             inkscape:connector-curvature="0" />
          <path
             id="path23490"
             d="m 510.24,74.821 c 0.221,-0.23 0.578,-0.177 0.59,-0.176 0,0 0.408,-0.014 0.69,0.479 0.225,0.391 0.337,1.187 0.427,1.701 -0.6,0 -1.378,0 -2.021,0 -0.02,-0.155 -0.032,-0.252 -0.032,-0.252 -0.11,-1.148 0.141,-1.543 0.346,-1.752 z"
             inkscape:connector-curvature="0" />
          <path
             id="path23492"
             d="m 505.813,74.504 c 1.596,0.141 1.88,2.002 1.914,2.321 -5.32,0 -10.991,0 -11.483,0 -0.956,0 -0.956,-0.957 -0.956,-0.957 v -1.392 l 10.136,0.01 c -10e-4,0 0.228,0.003 0.389,0.018 z"
             inkscape:connector-curvature="0" />
          <polygon
             id="polygon23494"
             points="519.027,82.195 530.43,90.933 527.179,90.933 519.185,84.72 " />
        </g>
        <g
           id="g23496">
          <path
             id="path23498"
             d="m 515.422,88.451 c -0.073,-1.063 -0.518,-4.822 -0.677,-6.204 -0.149,-1.313 -0.298,-2.332 -0.185,-2.897 0.065,-0.338 0.265,-0.505 0.505,-0.505 0.638,0 0.717,0.931 0.956,3.085 0.189,1.694 1.09,9.675 1.09,9.675 l -5.231,-0.006 c -0.026,0.315 -0.041,0.635 -0.041,0.958 0,3.728 1.788,6.979 4.844,9.392 l 2.609,-1.982 c -0.211,0.043 -0.443,0.067 -0.691,0.067 -1.391,0 -2.295,-0.729 -2.295,-1.627 0,-0.899 0.904,-1.627 2.295,-1.627 1.392,0 2.296,0.728 2.296,1.627 0,0.135 -0.023,0.266 -0.062,0.391 l 9.479,-7.197 h -5.479 c 0.235,0.229 0.371,0.523 0.371,0.857 0,0.784 -0.746,1.354 -1.775,1.354 -1.029,0 -1.777,-0.569 -1.777,-1.354 0,-0.333 0.136,-0.628 0.371,-0.857 h -2.735 c -0.086,-0.964 -1.431,-15.253 -1.566,-16.582 -0.106,-1.037 -0.69,-1.356 -0.69,-1.356 l -4.551,-3.534 c -10e-4,0.784 -0.746,1.352 -1.775,1.352 -1.03,0 -1.777,-0.57 -1.777,-1.353 0,-0.783 0.745,-1.351 1.772,-1.353 l -5.108,-3.884 c -3.662,2.172 -6.047,5.329 -6.577,9.059 h 2.622 c -0.52,-0.298 -0.821,-0.758 -0.821,-1.276 0,-0.899 0.904,-1.627 2.295,-1.627 1.393,0 2.295,0.729 2.295,1.627 0,0.518 -0.302,0.978 -0.821,1.276 h 0.884 c 0,0 1.087,-0.044 1.798,0.609 0.639,0.586 0.851,1.293 0.956,1.896 0.196,1.106 1.805,14.043 1.94,15.146 h -2.021 c -0.021,0.317 -0.033,0.636 -0.033,0.958 0,4.453 2.066,8.506 5.744,11.54 l 2.307,-1.75 c -3.13,-2.521 -4.959,-5.908 -4.959,-9.79 0,-0.323 0.015,-0.642 0.04,-0.958 l -1.915,-14.947 c -0.135,-1.071 0.124,-2.44 1.309,-2.575 0.537,-0.06 1.14,0.267 1.472,0.976 0.249,0.531 0.32,1.322 0.405,1.772 0.006,0 1.378,10.775 1.47,11.626 0.092,0.851 -0.004,2.597 0.978,2.445 0.917,-0.143 0.534,-1.383 0.459,-2.447 z"
             inkscape:connector-curvature="0" />
        </g>
      </g>
      <g
         id="g24772"
         transform="matrix(2.3931896,0,0,2.3931896,-2.8460419,544.61261)">
        <path
           id="path24774"
           d="m 240.5133,34.629 -0.372,0.248 -5.762,-1.922 -0.249,0.123 -0.372,0.063 -2.355,-1.176 c -0.166,0.041 -0.475,0.144 -0.929,0.31 -0.744,-0.868 -1.468,-1.303 -2.17,-1.303 l -0.496,0.311 c -0.494,-0.331 -1.196,-0.661 -2.107,-0.992 -0.37,0 -0.555,0.104 -0.555,0.31 -0.331,0 -0.642,-0.269 -0.931,-0.806 -1.239,-0.372 -1.88,-0.559 -1.92,-0.559 -0.125,0 -0.228,0.042 -0.309,0.125 l -0.312,0.063 c -0.659,-0.371 -1.57,-0.765 -2.726,-1.177 -0.167,0.083 -0.395,0.186 -0.681,0.309 -0.083,-0.081 -0.248,-0.309 -0.496,-0.682 l -0.434,14.128 c 0,0.249 1.302,1.24 3.904,2.976 2.603,1.733 3.905,2.747 3.905,3.035 v 1.984 l -9.047,-2.047 c -0.083,0.125 -0.434,0.767 -1.054,1.922 -0.373,-0.578 -0.89,-1.26 -1.548,-2.045 l -8.924,2.54 v -2.105 c 0,-0.413 1.229,-1.508 3.687,-3.284 2.458,-1.776 3.727,-2.79 3.809,-3.038 -0.412,-3.633 -0.68,-8.323 -0.804,-14.066 l -0.062,0.496 c -0.208,0 -0.393,-0.02 -0.558,-0.062 -0.29,0 -0.476,-0.021 -0.559,-0.061 -0.33,0 -0.785,0.176 -1.363,0.526 -0.579,0.351 -0.951,0.673 -1.116,0.96 h -0.493 c 0,-0.041 -0.105,-0.146 -0.311,-0.309 -0.124,0 -0.661,0.186 -1.611,0.557 -0.085,0.125 -0.311,0.394 -0.681,0.806 -0.249,-0.249 -0.456,-0.372 -0.62,-0.372 -0.869,0 -1.572,0.455 -2.108,1.363 -0.042,0 -0.155,-0.052 -0.341,-0.154 -0.186,-0.102 -0.362,-0.154 -0.526,-0.154 -1.116,0.412 -1.674,0.806 -1.674,1.177 h -0.555 l -0.373,-0.371 c -0.247,0.083 -0.848,0.331 -1.797,0.743 -0.041,0.124 -0.228,0.351 -0.558,0.68 l -0.248,-0.186 c 0,-0.123 -0.083,-0.184 -0.247,-0.184 -1.158,0.37 -3.036,0.99 -5.639,1.858 -0.084,-0.249 -0.167,-0.619 -0.25,-1.115 0,-1.033 0.208,-1.714 0.62,-2.045 1.157,-0.908 2.912,-2.085 5.268,-3.532 l 5.391,-3.284 c -0.415,-0.827 -0.642,-1.693 -0.682,-2.602 -0.043,-0.827 0.081,-1.447 0.371,-1.859 h 2.108 c 0,1.734 -0.021,2.933 -0.063,3.593 l 3.843,-2.726 -0.434,-0.62 c 0,-0.289 -0.022,-0.568 -0.063,-0.837 -0.043,-0.269 -0.103,-0.589 -0.186,-0.96 0,-0.373 0.125,-0.93 0.371,-1.673 h 2.542 c 0.083,1.032 0.061,1.879 -0.063,2.539 l 2.603,-2.043 v -6.878 c 0,-1.033 0.309,-2.354 0.929,-3.967 0.703,-1.858 1.467,-2.787 2.292,-2.787 1.363,0 2.293,2.044 2.789,6.134 0,0.166 0.164,2.663 0.495,7.498 0.745,0.62 1.548,1.177 2.418,1.674 0,-0.414 0.164,-1.2 0.494,-2.356 h 2.293 c 0,0.414 0.083,0.866 0.248,1.363 0,0.743 -0.228,1.57 -0.683,2.479 l 4.029,2.603 c 0,-0.784 -0.02,-1.385 -0.062,-1.797 0,-0.785 0.019,-1.362 0.062,-1.736 h 2.354 c 0.083,0.249 0.164,0.662 0.248,1.24 0,0.331 -0.104,0.828 -0.311,1.488 -0.206,0.784 -0.33,1.28 -0.372,1.486 0,0.333 1.591,1.384 4.771,3.161 1.28,0.703 3.202,1.776 5.764,3.222 0.124,0.041 0.392,0.34 0.806,0.897 0.412,0.559 0.66,0.94 0.744,1.146 v 1.736 z"
           inkscape:connector-curvature="0" />
      </g>
    </g>
    <flowRoot
       xml:space="preserve"
       id="flowRoot24983"
       style="fill:black;stroke:none;stroke-opacity:1;stroke-width:1px;stroke-linejoin:miter;stroke-linecap:butt;fill-opacity:1;font-family:MS Mincho;font-style:normal;font-weight:normal;font-size:28px;line-height:125%;letter-spacing:0px;word-spacing:0px;-inkscape-font-specification:MS Mincho;font-stretch:normal;font-variant:normal;text-anchor:start;text-align:start;writing-mode:lr"><flowRegion
         id="flowRegion24985"><rect
           id="rect24987"
           width="371.42856"
           height="37.142857"
           x="312.85715"
           y="478.07648" /></flowRegion><flowPara
         id="flowPara24989" /></flowRoot>    <flowRoot
       xml:space="preserve"
       id="flowRoot24991"
       style="fill:black;stroke:none;stroke-opacity:1;stroke-width:1px;stroke-linejoin:miter;stroke-linecap:butt;fill-opacity:1;font-family:MS Mincho;font-style:normal;font-weight:normal;font-size:28px;line-height:125%;letter-spacing:0px;word-spacing:0px;-inkscape-font-specification:MS Mincho;font-stretch:normal;font-variant:normal;text-anchor:start;text-align:start;writing-mode:lr"><flowRegion
         id="flowRegion24993"><rect
           id="rect24995"
           width="119.28571"
           height="118.57143"
           x="619.28571"
           y="466.64789" /></flowRegion><flowPara
         id="flowPara24997" /></flowRoot>    <rect
       id="border"
       width="726.37793"
       height="1027.5591"
       x="8.8582764"
       y="12.40155"
       style="fill:none;stroke:#808080;stroke-width:3;stroke-miterlimit:4;stroke-opacity:1;stroke-dasharray:none" />
  </g>
</svg>
